<svg width="128" height="128" viewBox="0 0 128 128" fill="none" xmlns="http://www.w3.org/2000/svg">
<circle cx="64" cy="64" r="63.5" fill="#FBF6FE" stroke="#D8D8D8"/>
<path fill-rule="evenodd" clip-rule="evenodd" d="M73.2202 102.993C100.332 102.209 103 96.4946 103 64.0521C103 28.2543 99.75 25 63.9999 25C28.25 25 25 28.2543 25 64.0521C25 96.5792 27.6845 102.238 54.9909 103C55.2282 102.704 55.3159 102.333 55.3159 101.955C55.3159 101.142 55.2834 92.7911 55.2672 89.9176C45.397 91.9971 43.3138 85.2997 43.3138 85.2997C41.6985 81.3229 39.3715 80.2619 39.3715 80.2619C36.1508 78.1271 39.6153 78.1694 39.6153 78.1694C43.1773 78.4135 45.0525 81.7199 45.0525 81.7199C48.218 86.9822 53.3595 85.4624 55.3809 84.5805C55.7027 82.3577 56.6192 80.838 57.6332 79.9788C49.752 79.1099 41.4678 76.155 41.4678 62.9586C41.4678 59.1999 42.8523 56.1278 45.1208 53.7195C44.7535 52.8474 43.538 49.3457 45.4685 44.6074C45.4685 44.6074 48.4488 43.6799 55.2282 48.1351C58.0589 47.3703 61.0944 46.9896 64.1137 46.9765C67.1264 46.9896 70.162 47.3703 72.9992 48.1351C79.7755 43.6799 82.7492 44.6074 82.7492 44.6074C84.6862 49.3457 83.4675 52.8474 83.1002 53.7195C85.3752 56.1278 86.75 59.1999 86.75 62.9586C86.75 76.1875 78.4527 79.1002 70.5455 79.9495C71.8195 81.0137 72.9537 83.116 72.9537 86.328C72.9537 89.4066 72.9342 94.8511 72.9212 98.4602C72.9147 100.247 72.9115 101.581 72.9115 101.955C72.9115 102.31 73.0057 102.684 73.2202 102.993Z" fill="black"/>
</svg>
